# xmcd
#
# Track frame offsets: 
#        150
#        16268
#        28239
#        37032
#        53304
#        70435
#        86841
#        99084
#        113674
#        130033
#        144255
#        157501
#        168239
#        182348
#        198574
#        210837
#        227926
#        244053
#
# Disc length: 3415 seconds
#
# Revision: 0
# Processed by: cddbd v1.5.2PL0 Copyright (c) Steve Scherf et al.
# Submitted via: ExactAudioCopy v0.95b4
#
DISCID=da0d5512
DTITLE=배호 - 천상의 가수 배호 전집 (아세아-2006) (10 CD)-06
DYEAR=2006
DGENRE=Country
TTITLE0=그 이름
TTITLE1=그 때 그 메아리
TTITLE2=꿈속의 가시네
TTITLE3=내 갈 곳은 어데냐
TTITLE4=바위에 새긴 사랑
TTITLE5=남몰래 흘린 눈물
TTITLE6=광야의 사나이
TTITLE7=타향살이-대사
TTITLE8=황성옛터-대사
TTITLE9=나그네 설움-대사
TTITLE10=징글벨
TTITLE11=고요한 밤
TTITLE12=화이트 크리스마스
TTITLE13=그 이름(MR)
TTITLE14=그 때 그 메아리(MR)
TTITLE15=바위에 새긴 사랑(MR)
TTITLE16=남몰래 흘린 눈물(MR)
TTITLE17=광야의 사나이(MR)
EXTD=
EXTT0=
EXTT1=
EXTT2=
EXTT3=
EXTT4=
EXTT5=
EXTT6=
EXTT7=
EXTT8=
EXTT9=
EXTT10=
EXTT11=
EXTT12=
EXTT13=
EXTT14=
EXTT15=
EXTT16=
EXTT17=
PLAYORDER=
